<svg id="Layer_1" enable-background="new 0 0 464 464" height="512" viewBox="0 0 464 464" width="512" xmlns="http://www.w3.org/2000/svg"><g><path d="m415.26 97.03c-13.585 79.378-23.506 137.354-61.75 360.8l-230.23 6.17c.13-9.968 4.271-328.106 4.41-338.74 34.599-3.396 275.565-27.051 287.57-28.23z" fill="#ff617f"/><path d="m163 406h26.613c2.209 0 4-1.791 4-4s-1.791-4-4-4h-26.613c-2.209 0-4 1.791-4 4s1.791 4 4 4z" fill="#ff4a6d"/><path d="m328 398h-108.581c-2.209 0-4 1.791-4 4s1.791 4 4 4h108.581c2.209 0 4-1.791 4-4s-1.791-4-4-4z" fill="#ff4a6d"/><g fill="#fbf5f7"><path d="m164.105 277.79 25.695-65.75 20.232-1.115 7.734 46.728c.36 2.18 2.416 3.655 4.6 3.293 2.179-.361 3.654-2.42 3.293-4.6l-16-96.667c-.294-1.776-1.739-3.138-3.53-3.325-1.795-.186-3.487.846-4.142 2.522l-45.333 116c-.804 2.058.212 4.377 2.27 5.182 2.07.81 4.382-.224 5.181-2.268zm40.038-102.449 4.576 27.644-15.718.866z"/><path d="m237.811 262.612c-17.328 6.306-35.454 9.087-53.823 9.052-2.201 0-3.99 1.78-4 3.983-.009 2.209 1.774 4.008 3.983 4.017 18.718.096 37.278-2.938 54.066-8.66l.357 13.198c.059 2.172 1.837 3.892 3.997 3.892 2.253 0 4.061-1.856 4-4.108l-.431-15.938c4.293-1.746 8.441-3.679 12.412-5.79 18.089-9.618 30.497-21.79 32.381-31.766 1.098-5.812-1.548-10.558-7.077-12.697-6.506-2.517-13.094-3.355-19.163-3.306 15.984-12.845 24.672-30.252 22.897-42.797-1.397-9.87-8.667-15.959-19.947-16.705-19.217-1.281-30.986 23.341-31.478 24.39-.265.564-.395 1.183-.377 1.807.453 16.704 1.462 54.032 2.203 81.428zm42.98-37.356c1.934.749 2.484 1.73 2.103 3.751-1.373 7.269-14.669 20.607-37.165 30.44l-.903-33.398c5.923-2.055 21.553-6.368 35.965-.793zm-13.854-62.286c7.476.495 11.7 3.806 12.554 9.843 1.695 11.973-10.764 33.713-34.897 44.633l-.958-35.461c2.003-3.784 11.247-19.799 23.301-19.015z"/><path d="m332.271 171.631c11.837-8.68 23.564-10.73 23.78-10.767 2.177-.354 3.657-2.406 3.306-4.584-.353-2.181-2.406-3.668-4.586-3.312-.545.088-13.511 2.266-26.919 11.984-12.377 8.972-27.475 26.303-29.105 57.921-1.849 35.833 12.915 50.842 26.12 52.806 1.093.163 2.18.243 3.257.243 12.772 0 24.212-11.204 28.5-28.442.533-2.144-.772-4.314-2.917-4.847-2.146-.532-4.313.773-4.847 2.917-8.623 34.675-44.836 30.316-42.124-22.264 1.171-22.711 9.763-40.09 25.535-51.655z"/><path d="m401.11 98.42c-11.021 1.082-263.622 25.878-273.42 26.84-36.377-4.766-78.95-45.43-78.95-45.43 93.59-48.02 194.27-67.9 246.54-75.52.053.106 1.348 6.802 7.24 17.56 20.044 36.449 59.556 61.385 98.59 76.55z"/></g><path d="m359.51 78.07-287.567 20.489-11.453-8.789c48.74-9.13 189.2-35.76 255.05-48.89 12.159 14.759 27.586 27.175 43.97 37.19z" fill="#ede3e7"/><path d="m127.69 125.26c-.138 10.634-4.28 328.772-4.41 338.74l-65.87-50.58c-1.606-43.341-7.607-289.701-8.67-333.59 0 0 16.526 15.081 36.212 27.652 18 11.494 42.738 17.778 42.738 17.778z" fill="#ff4a6d"/><path d="m331.46 0-10.29 47.3c-8.81-9.47-14.72-18.28-18.64-25.43-30.56 4.34-164.68 25.21-238.2 65.8-.34.19-3.51 1.92-3.84 2.1l-11.75-9.94c93.59-48.02 194.27-67.9 246.54-75.52 22.62-3.3 36.18-4.31 36.18-4.31z" fill="#ede3e7"/><path d="m194.21 64.415-11.71-64.415s-19 19.5-34.5 28-57-28-57-28l29.84 78.383z" fill="#52528c"/><path d="m331.46 0-10.29 47.3s-10.676-10.445-18.64-25.43c-2.229-4.194-4.565-9.845-7.25-17.56 22.62-3.3 36.18-4.31 36.18-4.31z" fill="#ff617f"/></g></svg>